<?xml version="1.0" encoding="UTF-8"?>
<svg version="1.1" xmlns="http://www.w3.org/2000/svg" width="1000" height="729">
<path d="M0 0 C3.30782592 2.80664017 3.18810457 6.259248 3.53923702 10.41879082 C3.62003895 11.35533965 3.70084088 12.29188848 3.78409135 13.25681758 C3.86911303 14.2791207 3.9541347 15.30142381 4.04173279 16.35470581 C4.13470473 17.43809715 4.22767667 18.52148848 4.32346594 19.63770986 C4.52649731 22.0037938 4.72822801 24.36998963 4.92883122 26.73628068 C5.48078809 33.23475766 6.04541365 39.732133 6.61105347 46.22943115 C6.69954001 47.24702922 6.69954001 47.24702922 6.78981415 48.28518482 C8.10969462 63.44797083 9.5194686 78.60197807 10.95336914 93.75439453 C11.01545482 94.41089102 11.07754049 95.06738752 11.14150755 95.74377784 C11.92019314 103.9773723 12.70192574 112.21067533 13.48527006 120.44382776 C14.18503718 127.79916784 14.8826357 135.15471325 15.58025079 142.51025771 C16.82792677 155.66471475 18.07757906 168.81898326 19.32836914 181.97314453 C20.52963161 194.6064454 21.72919183 207.23990649 22.92700195 219.87353516 C24.24837353 233.81037781 25.57071063 247.74712825 26.89464086 261.6837281 C27.03674479 263.17962317 27.17884833 264.67551828 27.32095146 266.17141342 C27.39078054 266.90647756 27.46060962 267.64154171 27.53255473 268.39888052 C28.01464239 273.47422776 28.49610024 278.5496345 28.97731209 283.62506485 C29.75012658 291.77511304 30.52479327 299.92498364 31.30102539 308.07470703 C31.4222914 309.34839905 31.54355742 310.62209107 31.66849816 311.93437982 C33.3147732 329.2022834 35.0107037 346.46409666 36.85320377 363.71228218 C37.27958764 367.72267682 37.67575897 371.73556919 38.0625 375.75 C38.16969891 376.78672844 38.16969891 376.78672844 38.27906346 377.84440088 C38.48845453 379.90712705 38.67494196 381.97076686 38.85585022 384.03616333 C38.96818528 385.2323485 39.08052034 386.42853367 39.1962595 387.66096687 C39.04571041 391.13773766 38.49731806 392.32505005 36.0625 394.75 C30.75489996 397.47184618 23.88988954 397.74225392 18.0625 396.75 C15.09879196 393.65476646 14.33395917 390.61733699 13.44140625 386.48828125 C13.30093872 385.85136856 13.16047119 385.21445587 13.01574707 384.5582428 C12.54182217 382.3951027 12.08319191 380.22902354 11.625 378.0625 C11.28439197 376.48440399 10.94314286 374.90644624 10.60131836 373.32861328 C9.83674184 369.78674991 9.08011993 366.24328581 8.328125 362.69873047 C7.44856466 358.55526889 6.55963549 354.41395592 5.6640625 350.27392578 C-1.55859293 316.87877771 -8.12913677 283.42021617 -13.9375 249.75 C-14.9275 249.75 -15.9175 249.75 -16.9375 249.75 C-23.6852523 262.37483852 -26.15953946 277.41637339 -29.33203125 291.23046875 C-29.84173656 293.42496719 -30.35211355 295.61930972 -30.8631134 297.81350708 C-32.220622 303.6501886 -33.56963143 309.48880125 -34.91663361 315.32791519 C-37.14974694 325.00026582 -39.39688458 334.66937798 -41.64051819 344.33929253 C-42.47970382 347.95763931 -43.3178507 351.5762256 -44.15588379 355.19483948 C-47.25030757 368.54731209 -50.37966138 381.89054561 -53.57487297 395.21926689 C-54.16427477 397.67855162 -54.75225177 400.13817243 -55.33973694 402.59791565 C-55.71173397 404.15488328 -56.0837579 405.71184449 -56.45581055 407.26879883 C-56.63366498 408.01307916 -56.81151941 408.75735949 -56.99476337 409.52419376 C-58.02446756 413.82836777 -59.06385174 418.13006612 -60.11004543 422.4302597 C-60.59062591 424.41321365 -61.06609641 426.39730687 -61.53923035 428.38204956 C-62.10034362 430.73515699 -62.66977107 433.0863064 -63.24971008 435.43484497 C-64.93944512 442.55356517 -64.93944512 442.55356517 -63.9375 449.75 C-57.86275357 452.11989596 -52.70366003 453.1752675 -46.19995117 452.97851562 C-45.3850204 452.96606056 -44.57008963 452.9536055 -43.73046398 452.94077301 C-41.13205208 452.89519746 -38.53521149 452.82517972 -35.9375 452.75 C-34.67705557 452.7183223 -34.67705557 452.7183223 -33.39114761 452.68600464 C-28.11453581 452.5526501 -22.83977324 452.38234428 -17.56484413 452.19441223 C-14.64799761 452.09053473 -11.73103214 451.99080257 -8.81401062 451.89196777 C-2.62588081 451.68156622 3.56206411 451.46601811 9.75 451.25 C16.9451478 450.99928969 24.14036353 450.75080404 31.33573341 450.50654602 C34.17814621 450.40911467 37.0204278 450.30836945 39.86271667 450.20739746 C44.13038861 450.05848213 48.39817804 449.92679199 52.66695786 449.81399536 C54.27076297 449.77115074 55.87447192 449.7245493 57.47806168 449.67428589 C59.73120585 449.60748089 61.98378543 449.5612083 64.23754883 449.52148438 C65.51165115 449.49260132 66.78575348 449.46371826 68.09846497 449.43395996 C69.56566231 449.59039978 69.56566231 449.59039978 71.0625 449.75 C73.52574069 453.44486103 73.45241688 455.38293092 73.0625 459.75 C71.97442627 461.44172668 71.97442627 461.44172668 70.0625 462.75 C66.99676514 463.14872742 66.99676514 463.14872742 63.15917969 463.18237305 C62.45601183 463.19255337 61.75284397 463.20273369 61.028368 463.2132225 C58.68029165 463.24355719 56.33262247 463.25265189 53.984375 463.26171875 C52.3211233 463.2787965 50.65788416 463.29713796 48.99465942 463.31666565 C44.52576489 463.36517712 40.05693114 463.39496943 35.58785248 463.42036438 C31.89652942 463.4431554 28.20531579 463.47543906 24.5140667 463.50786018 C15.28730741 463.5888687 6.06053587 463.65046526 -3.16642952 463.7021656 C-9.50435557 463.7386757 -15.84198479 463.79161832 -22.17971039 463.85328007 C-27.97370435 463.90905632 -33.76770171 463.94870361 -39.56188965 463.97915649 C-41.88264063 463.99297482 -44.20336947 464.01129524 -46.52404785 464.03427124 C-49.70627567 464.06365467 -52.88796581 464.07371401 -56.0703125 464.078125 C-56.98013885 464.09041641 -57.88996521 464.10270782 -58.82736206 464.1153717 C-64.88302725 464.09419045 -69.70571284 463.35402775 -74.57819843 459.4279995 C-77.26029351 456.11706814 -76.95507821 451.86018642 -76.9375 447.75 C-76.49779219 444.09048668 -75.69753366 440.56773823 -74.82348633 436.98974609 C-74.59301763 435.9923258 -74.36254892 434.99490551 -74.12509632 433.96726036 C-73.41062836 430.89115923 -72.67510735 427.82062333 -71.9375 424.75 C-71.51196882 422.93286632 -71.08771321 421.11543334 -70.66488647 419.29766846 C-69.38728736 413.83077437 -68.07602304 408.37222816 -66.76171875 402.9140625 C-66.27387847 400.8803519 -65.78621763 398.84659825 -65.29872131 396.81280518 C-64.00953222 391.43796201 -62.71696721 386.06393718 -61.42314148 380.69020844 C-60.61997991 377.35414825 -59.81742977 374.01794146 -59.01501465 370.68170166 C-55.57167635 356.36746825 -52.11941804 342.05540145 -48.66109467 327.74478149 C-47.96945768 324.88226502 -47.27826443 322.01964181 -46.58721924 319.15698242 C-44.30010648 309.68454998 -42.00486218 300.21417172 -39.69302368 290.7477417 C-39.02796169 288.0239141 -38.36609936 285.29934173 -37.7071228 282.57403564 C-36.80805965 278.85715006 -35.89699723 275.14326858 -34.984375 271.4296875 C-34.73124039 270.37702698 -34.47810577 269.32436646 -34.21730042 268.23980713 C-29.9940259 251.21255091 -29.9940259 251.21255091 -24.5 245.3125 C-23.94441406 244.69503906 -23.38882813 244.07757813 -22.81640625 243.44140625 C-20.68253119 241.52047507 -18.4367007 240.15178152 -15.9375 238.75 C-16.04819824 238.14341553 -16.15889648 237.53683105 -16.27294922 236.91186523 C-18.98163078 221.88446071 -20.92407541 206.98450537 -21.9375 191.75 C-21.99534668 190.95255371 -22.05319336 190.15510742 -22.11279297 189.33349609 C-22.93327911 177.7566071 -23.01790623 166.17152815 -23.015625 154.5703125 C-23.01572445 153.75972004 -23.0158239 152.94912758 -23.01592636 152.11397171 C-23.00564796 127.34040679 -22.61121747 102.56899597 -22.22586811 77.79895997 C-22.11397019 70.60224773 -22.01033461 63.40547769 -21.91351616 56.208547 C-21.83702018 50.56006128 -21.7531845 44.91171424 -21.6637429 39.26341879 C-21.61097674 35.92100541 -21.56220621 32.57865949 -21.51935196 29.23609543 C-21.47129158 25.54830562 -21.41123266 21.86089886 -21.34814453 18.17333984 C-21.33663361 17.08374466 -21.32512268 15.99414948 -21.31326294 14.87153625 C-21.28389648 13.36811424 -21.28389648 13.36811424 -21.25393677 11.83432007 C-21.24103167 10.96778997 -21.22812656 10.10125988 -21.2148304 9.2084713 C-20.77276381 5.2896509 -19.73158127 2.54408127 -16.9375 -0.25 C-11.34039462 -1.58264414 -5.37773863 -2.28839942 0 0 Z M0.0625 117.75 C-0.15748382 126.18553348 0.59834826 134.44892299 1.42926025 142.82971191 C2.95640947 158.25135632 4.32462055 173.68419713 5.59375 189.12890625 C5.72653399 190.73797586 5.85937711 192.34704059 5.99227905 193.95610046 C6.5905269 201.20731969 7.18513474 208.45877062 7.76594162 215.71140957 C8.01199868 218.76566845 8.26383001 221.81943298 8.51704407 224.873106 C8.63449981 226.30533741 8.74944025 227.73777765 8.86167908 229.17042732 C9.01732834 231.15417848 9.18254579 233.1371718 9.34814453 235.12011719 C9.4832695 236.79421661 9.4832695 236.79421661 9.62112427 238.50213623 C10.10897378 242.09197738 10.99228171 245.29337097 12.0625 248.75 C12.7225 248.42 13.3825 248.09 14.0625 247.75 C13.481985 236.08785966 12.67260099 224.47586251 11.57421875 212.8515625 C11.4280882 211.2820316 11.28216378 209.7124815 11.13642883 208.14291382 C10.83181368 204.8704589 10.5248347 201.59823728 10.21606445 198.32617188 C9.831903 194.25339916 9.45353211 190.1801142 9.07681084 186.10664749 C7.55463951 169.66892381 5.96732444 153.2366376 4.21421242 136.82178879 C4.04365992 135.21471696 3.87618517 133.60731533 3.71188927 131.99959183 C3.48473476 129.78689126 3.24569155 127.57580806 3.00317383 125.36474609 C2.86953934 124.1076181 2.73590485 122.85049011 2.59822083 121.55526733 C2.42143295 120.62952911 2.24464508 119.70379089 2.0625 118.75 C1.4025 118.42 0.7425 118.09 0.0625 117.75 Z M13.0625 258.75 C13.7225 264.03 14.3825 269.31 15.0625 274.75 C15.7225 274.75 16.3825 274.75 17.0625 274.75 C17.3021943 269.11718401 16.44779821 264.20461169 15.0625 258.75 C14.4025 258.75 13.7425 258.75 13.0625 258.75 Z " fill="#101010" transform="translate(416.9375,8.25)"/>
<path d="M0 0 C9.24 0 18.48 0 28 0 C33.64030563 10.17466898 38.64485863 20.54333082 43.50756836 31.11010742 C48.3493408 41.62887918 53.28535371 52.10119763 58.25 62.5625 C58.80466949 63.73173508 58.80466949 63.73173508 59.37054443 64.92459106 C60.10004954 66.46235214 60.82967322 68.00005698 61.55941772 69.53770447 C62.27563853 71.04717788 62.99148413 72.55682938 63.7069397 74.06666565 C65.64383692 78.15220745 67.59058377 82.23274766 69.54882812 86.30810547 C69.9663031 87.18039291 70.38377808 88.05268036 70.81390381 88.95140076 C71.62119786 90.63801232 72.43150961 92.32318357 73.24517822 94.00672913 C73.60609558 94.7623967 73.96701294 95.51806427 74.33886719 96.29663086 C74.66022644 96.96480331 74.98158569 97.63297577 75.31268311 98.32139587 C76 100 76 100 76 102 C76.66 102 77.32 102 78 102 C78.17237686 101.44634262 78.34475372 100.89268524 78.52235413 100.32225037 C80.25856549 94.91152216 82.33331433 89.83265166 84.80859375 84.72265625 C85.17129364 83.96257767 85.53399353 83.20249908 85.90768433 82.41938782 C86.68040084 80.8012831 87.45541477 79.18427375 88.23257446 77.56829834 C90.28284152 73.30450309 92.31578407 69.03244519 94.3515625 64.76171875 C94.75540665 63.91579163 95.15925079 63.0698645 95.57533264 62.19830322 C98.87486489 55.28153126 102.11387906 48.33910002 105.3125 41.375 C105.77301758 40.37355957 106.23353516 39.37211914 106.70800781 38.34033203 C107.63936142 36.31413213 108.57034922 34.28776405 109.50097656 32.26123047 C112.09370998 26.62055734 114.69486011 20.98380457 117.30282593 15.35015869 C117.88850912 14.08391602 118.47334011 12.8172788 119.05728149 11.55023193 C119.8629798 9.80208182 120.6716499 8.05530227 121.48046875 6.30859375 C122.17499146 4.80510376 122.17499146 4.80510376 122.88354492 3.27124023 C124 1 124 1 125 0 C127.07262076 -0.08767112 129.14820294 -0.10695873 131.22265625 -0.09765625 C132.48271484 -0.09443359 133.74277344 -0.09121094 135.04101562 -0.08789062 C136.38151109 -0.07953403 137.72200588 -0.07106907 139.0625 -0.0625 C140.40689942 -0.0574866 141.7513006 -0.05292342 143.09570312 -0.04882812 C146.39717941 -0.03699488 149.69856803 -0.02050971 153 0 C153 1.32 153 2.64 153 4 C149.04 4.66 145.08 5.32 141 6 C140.67 50.22 140.34 94.44 140 140 C144.95 140.33 149.9 140.66 155 141 C155 142.32 155 143.64 155 145 C140.81 145 126.62 145 112 145 C112.33 143.68 112.66 142.36 113 141 C118.94 140.01 118.94 140.01 125 139 C125 97.42 125 55.84 125 13 C114.51292384 35.58197516 114.51292384 35.58197516 104.06796265 58.18325806 C98.28390092 70.73068043 92.49417104 83.27552369 86.6875 95.8125 C86.17896484 96.91335938 85.67042969 98.01421875 85.14648438 99.1484375 C82.2061945 105.48930553 79.16620741 111.76877237 76 118 C74.02 118 72.04 118 70 118 C59.55249451 97.39700005 49.59300068 76.55466138 39.92211914 55.57739258 C35.2061383 45.37472304 30.32959327 35.2533933 25.40429688 25.15039062 C24.5622168 23.41885742 24.5622168 23.41885742 23.703125 21.65234375 C23.20458008 20.63132568 22.70603516 19.61030762 22.19238281 18.55834961 C21 16 21 16 20 13 C19.67 54.91 19.34 96.82 19 140 C23.62 140 28.24 140 33 140 C36.005486 140.27958009 39.00984805 140.58756525 42 141 C42 142.32 42 143.64 42 145 C28.14 145 14.28 145 0 145 C0 143.68 0 142.36 0 141 C5.94 140.01 5.94 140.01 12 139 C12 95.11 12 51.22 12 6 C6.06 5.01 6.06 5.01 0 4 C0 2.68 0 1.36 0 0 Z " fill="#101010" transform="translate(10,574)"/>
<path d="M0 0 C7.74610972 -0.06996438 15.49214337 -0.12304429 23.23849106 -0.15543652 C26.83668039 -0.17099475 30.43465121 -0.19204913 34.03271484 -0.22631836 C37.5146215 -0.25926816 40.99631996 -0.2769267 44.47837067 -0.28463173 C46.43232601 -0.29275243 48.38619931 -0.31611272 50.34002686 -0.33988953 C62.45124609 -0.3421383 75.5866584 1.49731841 85.03515625 9.78515625 C93.09478495 18.39236058 95.41251824 27.9882999 95.26953125 39.53125 C94.25133972 52.63493228 86.32758838 64.98413052 77 74 C74.729392 75.80543273 72.42539394 77.39924 70 79 C74.04014604 86.61782115 78.38354504 93.96917362 83 101.25 C88.34210794 109.74039916 93.64562746 118.25212609 98.875 126.8125 C99.47570312 127.79057617 100.07640625 128.76865234 100.6953125 129.77636719 C101.24703125 130.68161133 101.79875 131.58685547 102.3671875 132.51953125 C102.85300293 133.31464111 103.33881836 134.10975098 103.83935547 134.92895508 C105 137 105 137 106 140 C109.63 140.33 113.26 140.66 117 141 C117 142.32 117 143.64 117 145 C113.12629549 145.26246434 109.25487619 145.42153564 105.375 145.5625 C104.28058594 145.63791016 103.18617188 145.71332031 102.05859375 145.79101562 C94.15246709 146.00663726 94.15246709 146.00663726 91.15356445 143.38720703 C89.5474234 141.00536214 88.28326022 138.5699504 87 136 C85.80565229 134.04785578 84.59504984 132.10559292 83.37109375 130.171875 C82.05831825 128.03221712 80.74718318 125.89155209 79.4375 123.75 C78.38167222 122.02842617 77.32515908 120.30727409 76.26864624 118.58612061 C75.55606814 117.42514882 74.84368591 116.26405679 74.13150024 115.10284424 C70.68194402 109.47845333 67.21956157 103.86206739 63.75 98.25 C63.22591553 97.40018555 62.70183105 96.55037109 62.16186523 95.67480469 C61.67016846 94.87977539 61.17847168 94.08474609 60.671875 93.265625 C60.2500293 92.58274414 59.82818359 91.89986328 59.39355469 91.19628906 C57.6413228 88.43471267 55.81418519 85.72127779 54 83 C41.13 82.505 41.13 82.505 28 82 C28 101.14 28 120.28 28 140 C32.62 140.33 37.24 140.66 42 141 C42 142.32 42 143.64 42 145 C27.81 145 13.62 145 -1 145 C-0.505 143.02 -0.505 143.02 0 141 C0.78246094 140.86722656 1.56492187 140.73445312 2.37109375 140.59765625 C3.88896484 140.33275391 3.88896484 140.33275391 5.4375 140.0625 C6.44683594 139.88847656 7.45617187 139.71445312 8.49609375 139.53515625 C10.9287438 139.25248903 10.9287438 139.25248903 12 138 C12.09619441 136.30441297 12.12187659 134.6047916 12.12025452 132.90647888 C12.12162918 131.80285004 12.12300385 130.69922119 12.12442017 129.56214905 C12.12082489 128.34079758 12.11722961 127.11944611 12.11352539 125.86108398 C12.11367142 124.58322021 12.11381744 123.30535645 12.1139679 121.98876953 C12.11425585 118.47446409 12.1083594 114.9601925 12.10139394 111.44589496 C12.09516012 107.77700644 12.09455658 104.10811723 12.09336853 100.43922424 C12.0902553 93.48709565 12.08204202 86.5349827 12.07201904 79.58286101 C12.06085766 71.6700522 12.05534739 63.75724266 12.05032361 55.84442794 C12.0398594 39.56294279 12.02226011 23.28147339 12 7 C7.67060054 5.73361205 3.46635712 4.65361324 -1 4 C-0.67 2.68 -0.34 1.36 0 0 Z M28 4 C28 28.42 28 52.84 28 78 C39.22 78 50.44 78 62 78 C74.36097756 62.89213854 81.47067453 50.56230564 80 31 C78.69702855 22.70040037 75.68243926 14.89251556 69.078125 9.40234375 C56.45687656 1.0126379 43.52503254 4 28 4 Z " fill="#101010" transform="translate(681,574)"/>
<path d="M0 0 C24.2335451 -3.44507103 24.2335451 -3.44507103 31.40771484 1.74023438 C35.61651213 6.75024015 38.03890717 12.73297689 40.546875 18.72363281 C43.03150909 24.32574797 46.24172574 29.49243826 49.375 34.75 C50.64579439 36.94828974 51.91269892 39.14883256 53.17578125 41.3515625 C56.9680101 47.94463844 60.76336946 54.53589837 64.5625 61.125 C65.18366699 62.20233398 65.80483398 63.27966797 66.44482422 64.38964844 C71.17452295 72.58548954 75.93773991 80.76138377 80.71313477 88.93066406 C83.82330213 94.25533401 86.92101355 99.58692524 90 104.9296875 C90.50237183 105.80140594 90.50237183 105.80140594 91.01489258 106.69073486 C92.62873886 109.49211183 94.24096889 112.29440788 95.8515625 115.09765625 C99.50089458 121.43977743 103.21012182 127.740801 107 134 C107.14393311 103.45296468 106.9161481 72.91877126 106.5 42.375 C106.48804218 41.49704899 106.47608437 40.61909798 106.46376419 39.71454239 C106.31472627 28.80961307 106.15952834 17.9047806 106 7 C99.4 6.01 92.8 5.02 86 4 C85.505 2.02 85.505 2.02 85 0 C98.53 0 112.06 0 126 0 C126 1.32 126 2.64 126 4 C121.71 4.33 117.42 4.66 113 5 C113 51.2 113 97.4 113 145 C107.39 145 101.78 145 96 145 C95.01902344 143.28039062 94.03804687 141.56078125 93.02734375 139.7890625 C80.86683997 118.48310611 68.64288956 97.21539768 56.2668457 76.03369141 C49.46384882 64.38314152 42.73413708 52.6904349 36 41 C33.58216338 36.8036869 31.16359338 32.60779716 28.74435425 28.41229248 C27.77393527 26.72901778 26.80407481 25.04542113 25.83422852 23.36181641 C25.24440186 22.33878418 24.6545752 21.31575195 24.046875 20.26171875 C23.52963867 19.36412842 23.01240234 18.46653809 22.47949219 17.54174805 C21.00858327 15.01474595 19.50434482 12.50724137 18 10 C18 52.9 18 95.8 18 140 C22.95 140 27.9 140 33 140 C36.00578071 140.27639363 39.01083555 140.58046815 42 141 C42 142.32 42 143.64 42 145 C27.81 145 13.62 145 -1 145 C-0.505 143.02 -0.505 143.02 0 141 C3.96 140.67 7.92 140.34 12 140 C12 96.11 12 52.22 12 7 C7.50878395 5.71679541 3.54720345 4.66544441 -1 4 C-0.67 2.68 -0.34 1.36 0 0 Z " fill="#101010" transform="translate(475,574)"/>
<path d="M0 0 C1.39456452 0.00667256 2.78911118 0.01863093 4.18359375 0.03515625 C5.2499707 0.04192383 5.2499707 0.04192383 6.33789062 0.04882812 C8.09899388 0.06064761 9.86005411 0.07858362 11.62109375 0.09765625 C11.98868301 1.19011658 12.35627228 2.2825769 12.73500061 3.40814209 C16.27601258 13.93150218 19.81797155 24.45454316 23.36075687 34.97730637 C25.18015633 40.38136916 26.99927146 45.78552724 28.81762695 51.18994141 C38.68477275 80.51564074 48.61237325 109.81996098 58.62109375 139.09765625 C63.24109375 139.75765625 67.86109375 140.41765625 72.62109375 141.09765625 C72.62109375 142.41765625 72.62109375 143.73765625 72.62109375 145.09765625 C58.76109375 145.09765625 44.90109375 145.09765625 30.62109375 145.09765625 C30.62109375 143.77765625 30.62109375 142.45765625 30.62109375 141.09765625 C34.58109375 140.76765625 38.54109375 140.43765625 42.62109375 140.09765625 C38.99109375 128.87765625 35.36109375 117.65765625 31.62109375 106.09765625 C-0.05890625 105.60265625 -0.05890625 105.60265625 -32.37890625 105.09765625 C-33.36890625 110.04765625 -33.36890625 110.04765625 -34.37890625 115.09765625 C-34.98456944 117.25854194 -35.6280416 119.40952265 -36.32421875 121.54296875 C-36.67871094 122.63867188 -37.03320312 123.734375 -37.3984375 124.86328125 C-37.76324219 125.971875 -38.12804687 127.08046875 -38.50390625 128.22265625 C-38.87644531 129.36992188 -39.24898437 130.5171875 -39.6328125 131.69921875 C-40.54318613 134.50036838 -41.45863374 137.29974642 -42.37890625 140.09765625 C-41.48429688 140.08605469 -40.5896875 140.07445312 -39.66796875 140.0625 C-32.4971111 140.00898614 -25.49379241 140.17960642 -18.37890625 141.09765625 C-18.70890625 142.41765625 -19.03890625 143.73765625 -19.37890625 145.09765625 C-33.23890625 145.09765625 -47.09890625 145.09765625 -61.37890625 145.09765625 C-61.37890625 143.77765625 -61.37890625 142.45765625 -61.37890625 141.09765625 C-55.43890625 140.10765625 -55.43890625 140.10765625 -49.37890625 139.09765625 C-42.5522252 118.74785503 -35.80387987 98.37273168 -29.12890625 77.97265625 C-28.77466583 76.89023651 -28.42042542 75.80781677 -28.05545044 74.69259644 C-23.91700118 62.03792229 -19.81578658 49.37196883 -15.76953125 36.6875 C-15.39801941 35.52321472 -15.02650757 34.35892944 -14.64373779 33.15936279 C-12.85449978 27.5485088 -11.06999042 21.93620308 -9.29199219 16.32177734 C-8.65433526 14.31606853 -8.01664201 12.31037126 -7.37890625 10.3046875 C-7.08808167 9.38131088 -6.79725708 8.45793427 -6.49761963 7.50657654 C-6.23156921 6.67143021 -5.9655188 5.83628387 -5.69140625 4.97583008 C-5.46066406 4.24664871 -5.22992187 3.51746735 -4.9921875 2.76618958 C-3.86718975 -0.29455335 -3.55443004 0.10272919 0 0 Z M-2.37890625 7.09765625 C-5.29427787 16.56467899 -8.20694075 26.03253067 -11.11632824 35.50139427 C-12.46795268 39.90008841 -13.82044237 44.29851226 -15.17504883 48.69628906 C-16.48696853 52.95560318 -17.79643353 57.21566538 -19.10433388 61.47621536 C-19.59895187 63.08601321 -20.09439324 64.69555836 -20.59074974 66.30482101 C-20.82668657 67.06994633 -21.06262341 67.83507164 -21.30570984 68.62338257 C-21.51033687 69.28606329 -21.71496389 69.94874401 -21.92579174 70.63150597 C-24.91300009 80.42447405 -27.63501617 90.21965195 -30.37890625 100.09765625 C-10.57890625 100.09765625 9.22109375 100.09765625 29.62109375 100.09765625 C27.81095298 93.46047343 26.00163459 86.93892289 23.83374023 80.42919922 C23.57316833 79.63916 23.31259644 78.84912079 23.04412842 78.03514099 C22.19666166 75.46897661 21.34479093 72.90430569 20.4921875 70.33984375 C19.89587774 68.54193493 19.29961076 66.74401192 18.7033844 64.94607544 C17.46079621 61.20191903 16.21562788 57.45863153 14.96899414 53.71582031 C13.36907568 48.91063697 11.77892464 44.10228013 10.19100857 39.29311943 C8.96674694 35.59069646 7.73580144 31.8905218 6.50294685 28.1909523 C5.91319213 26.41747316 5.32591834 24.64316706 4.74114799 22.86803818 C3.92747735 20.40034162 3.10450314 17.93594472 2.27905273 15.47216797 C2.03848648 14.73563492 1.79792023 13.99910187 1.55006409 13.24024963 C0.50226056 9.45103127 0.50226056 9.45103127 -2.37890625 7.09765625 Z " fill="#101010" transform="translate(865.37890625,573.90234375)"/>
<path d="M0 0 C4.95 0 9.9 0 15 0 C23.67987214 25.37411237 32.320278 50.76137494 40.92626953 76.16064453 C44.70807374 87.31887985 48.49872972 98.47384418 52.32421875 109.6171875 C52.82364487 111.07333466 52.82364487 111.07333466 53.3331604 112.55889893 C54.88112119 117.07181892 56.43194039 121.58371309 57.98828125 126.09375 C58.52747154 127.66401863 59.06654192 129.23432843 59.60546875 130.8046875 C59.85133224 131.51325897 60.09719574 132.22183044 60.35050964 132.95187378 C62 137.77284454 62 137.77284454 62 140 C66.62 140.33 71.24 140.66 76 141 C76 142.32 76 143.64 76 145 C62.14 145 48.28 145 34 145 C34 143.68 34 142.36 34 141 C37.96 140.67 41.92 140.34 46 140 C45.2981942 137.51883703 44.58853545 135.04029537 43.875 132.5625 C43.68679688 131.89412109 43.49859375 131.22574219 43.3046875 130.53710938 C40.891277 122.20330125 37.90507895 114.23105703 35 106 C14.21 106 -6.58 106 -28 106 C-31.3 116.89 -34.6 127.78 -38 139 C-26.615 139.99 -26.615 139.99 -15 141 C-15 142.32 -15 143.64 -15 145 C-29.19 145 -43.38 145 -58 145 C-58 143.68 -58 142.36 -58 141 C-57.18015625 140.97164062 -56.3603125 140.94328125 -55.515625 140.9140625 C-53.89914062 140.77097656 -53.89914062 140.77097656 -52.25 140.625 C-50.64898437 140.52058594 -50.64898437 140.52058594 -49.015625 140.4140625 C-45.43498341 138.73505699 -45.34631474 138.09973428 -44.01513672 134.53540039 C-43.50563477 133.17738312 -43.50563477 133.17738312 -42.98583984 131.79193115 C-41.49077074 127.55784583 -40.08645937 123.30374812 -38.7421875 119.01953125 C-38.29125229 117.59985802 -38.29125229 117.59985802 -37.83120728 116.15150452 C-37.18212515 114.10755842 -36.5345782 112.06312428 -35.88842773 110.01824951 C-34.13000949 104.45589096 -32.35801557 98.89786291 -30.5859375 93.33984375 C-30.21535217 92.17704895 -29.84476685 91.01425415 -29.46295166 89.81622314 C-25.2065881 76.48138007 -20.85859029 63.17671479 -16.5 49.875 C-16.13163025 48.74969879 -15.7632605 47.62439758 -15.38372803 46.46499634 C-10.30699127 30.95949682 -5.17349197 15.47347581 0 0 Z M2 7 C-1.08256527 14.80224914 -3.4922737 22.81019083 -5.96484375 30.8203125 C-6.44405546 32.36722798 -6.92343373 33.91409188 -7.40296936 35.46090698 C-8.40547706 38.69645914 -9.40635971 41.93250794 -10.40600586 45.16894531 C-11.6751873 49.27776458 -12.94779618 53.38551194 -14.22157955 57.49290657 C-15.21202087 60.68766807 -16.20089748 63.88291225 -17.18930244 67.07830429 C-17.6572836 68.59079227 -18.12565821 70.10315858 -18.59446526 71.61539078 C-19.25582739 73.74979872 -19.91514287 75.88482936 -20.57397461 78.02001953 C-20.94687119 79.2261087 -21.31976776 80.43219788 -21.70396423 81.67483521 C-23.52907232 87.76563413 -25.25322181 93.88627634 -27 100 C-7.2 100 12.6 100 33 100 C31.64254661 93.89145972 30.192525 88.15270953 28.20263672 82.26733398 C27.92924469 81.44671982 27.65585266 80.62610565 27.37417603 79.78062439 C26.48027813 77.10100063 25.58004646 74.42355273 24.6796875 71.74609375 C24.05438478 69.8757879 23.42948249 68.00534813 22.80496216 66.13478088 C21.16827413 61.23611542 19.52618649 56.33927693 17.88293457 51.44281006 C16.20382214 46.43628122 14.52986854 41.42802835 12.85546875 36.41992188 C9.57533453 26.6115954 6.2894884 16.80519292 3 7 C2.67 7 2.34 7 2 7 Z " fill="#101010" transform="translate(392,574)"/>
<path d="M0 0 C13.86 0 27.72 0 42 0 C42.495 1.98 42.495 1.98 43 4 C38.05 4.33 33.1 4.66 28 5 C28 49.55 28 94.1 28 140 C46.48 140 64.96 140 84 140 C85.32 129.11 86.64 118.22 88 107 C89.65 107.33 91.3 107.66 93 108 C93.13680254 115.34680281 92.73047434 122.56044414 92.0625 129.875 C91.97548828 130.89335938 91.88847656 131.91171875 91.79882812 132.9609375 C91.42958877 137.11829918 91.01557176 140.93771294 90 145 C60.3 145 30.6 145 0 145 C0 143.68 0 142.36 0 141 C5.94 140.01 5.94 140.01 12 139 C12 95.11 12 51.22 12 6 C6.06 5.01 6.06 5.01 0 4 C0 2.68 0 1.36 0 0 Z " fill="#101010" transform="translate(236,574)"/>
<path d="M0 0 C14.19 0 28.38 0 43 0 C43 1.32 43 2.64 43 4 C38.38 4.33 33.76 4.66 29 5 C29 49.55 29 94.1 29 140 C33.62 140.33 38.24 140.66 43 141 C43 142.32 43 143.64 43 145 C28.81 145 14.62 145 0 145 C0 143.68 0 142.36 0 141 C0.85464844 140.87882813 1.70929687 140.75765625 2.58984375 140.6328125 C3.69457031 140.46523438 4.79929687 140.29765625 5.9375 140.125 C7.03964844 139.96257812 8.14179687 139.80015625 9.27734375 139.6328125 C10.17582031 139.42398438 11.07429687 139.21515625 12 139 C13.26723783 136.46552435 13.12585362 134.71352025 13.12698364 131.87561035 C13.12980347 130.79032547 13.13262329 129.70504059 13.13552856 128.58686829 C13.13350433 127.39095566 13.1314801 126.19504303 13.12939453 124.96289062 C13.13114685 123.70760056 13.13289917 122.45231049 13.13470459 121.15898132 C13.13927276 117.71071856 13.13749189 114.26248564 13.1343255 110.81422234 C13.13179874 107.21033521 13.13414033 103.6064507 13.13571167 100.00256348 C13.13753243 93.94978373 13.13512949 87.89701618 13.13037109 81.84423828 C13.12492865 74.84032734 13.12669137 67.8364455 13.1321975 60.83253527 C13.13673127 54.82571682 13.13737788 48.81890714 13.13475883 42.81208754 C13.13319751 39.22158805 13.13299833 35.63110225 13.13629532 32.04060364 C13.13971259 28.03942126 13.13497997 24.0382893 13.12939453 20.03710938 C13.13243088 18.24324043 13.13243088 18.24324043 13.13552856 16.41313171 C13.13270874 15.32784683 13.12988892 14.24256195 13.12698364 13.12438965 C13.12660662 12.17754051 13.12622959 11.23069138 13.12584114 10.25514984 C13.14758669 7.96460176 13.14758669 7.96460176 12 6 C9.19019327 5.30772968 9.19019327 5.30772968 5.9375 4.875 C4.83277344 4.70742188 3.72804688 4.53984375 2.58984375 4.3671875 C1.73519531 4.24601563 0.88054688 4.12484375 0 4 C0 2.68 0 1.36 0 0 Z " fill="#101010" transform="translate(945,574)"/>
<path d="M0 0 C13.86 0 27.72 0 42 0 C42 1.32 42 2.64 42 4 C37.38 4.33 32.76 4.66 28 5 C28 49.55 28 94.1 28 140 C32.62 140.33 37.24 140.66 42 141 C42 142.32 42 143.64 42 145 C28.14 145 14.28 145 0 145 C0 143.68 0 142.36 0 141 C5.94 140.01 5.94 140.01 12 139 C12 95.11 12 51.22 12 6 C6.06 5.01 6.06 5.01 0 4 C0 2.68 0 1.36 0 0 Z " fill="#101010" transform="translate(178,574)"/>
<path d="M0 0 C6.3494301 4.03868742 11.26127663 9.0477919 13.6875 16.25 C13.8828125 19.14453125 13.8828125 19.14453125 13.8125 22.0625 C13.79445313 23.03832031 13.77640625 24.01414062 13.7578125 25.01953125 C13.73460937 25.75558594 13.71140625 26.49164063 13.6875 27.25 C0.53600976 27.2731209 -12.61547569 27.29091379 -25.76698208 27.30181217 C-31.87306369 27.30704156 -37.97913144 27.3141402 -44.08520508 27.32543945 C-49.97255147 27.33626637 -55.85988449 27.34227642 -61.74724007 27.34487724 C-63.99882277 27.34673185 -66.25040469 27.35035313 -68.50198174 27.35573006 C-71.64383427 27.36293789 -74.78563083 27.36399105 -77.92749023 27.36352539 C-78.86831955 27.36712067 -79.80914886 27.37071594 -80.77848816 27.37442017 C-87.19844784 27.36405216 -87.19844784 27.36405216 -88.3125 26.25 C-88.48046875 24.2890625 -88.48046875 24.2890625 -88.5 21.875 C-88.51417969 21.08351563 -88.52835938 20.29203125 -88.54296875 19.4765625 C-88.3125 17.25 -88.3125 17.25 -86.3125 14.25 C-83.49776775 13.99554147 -80.90514459 13.92614923 -78.09375 13.9921875 C-76.87322937 14.00211227 -76.87322937 14.00211227 -75.62805176 14.01223755 C-73.02248764 14.03569225 -70.41776311 14.07941149 -67.8125 14.125 C-65.20733732 14.16002982 -62.60222143 14.190826 -59.99694824 14.21633911 C-58.37422964 14.23335038 -56.75156197 14.25652015 -55.12902832 14.28634644 C-51.09145504 14.44309475 -51.09145504 14.44309475 -47.3125 13.25 C-46.9825 6.32 -46.6525 -0.61 -46.3125 -7.75 C-31.30841828 -11.50102043 -13.30415719 -7.38450957 0 0 Z " fill="#101010" transform="translate(641.3125,443.75)"/>
<path d="M0 0 C0 5.94 0 11.88 0 18 C-10.89 18 -21.78 18 -33 18 C-31.60458655 12.4183462 -28.58868685 10.27763346 -24 7 C-6.1192335 -3.05961675 -6.1192335 -3.05961675 0 0 Z " fill="#101010" transform="translate(591,437)"/>
</svg>
